<svg width="1200" height="900" viewBox="0 0 1200 900" fill="none" xmlns="http://www.w3.org/2000/svg">
  <rect width="1200" height="900" rx="48" fill="#F8F2EA"/>
  <rect x="118" y="102" width="964" height="696" rx="40" fill="#FFFDF9" stroke="#E9DECf" stroke-width="4"/>
  <rect x="118" y="102" width="964" height="146" rx="40" fill="#D38A63"/>
  <circle cx="248" cy="176" r="22" fill="#FFF4EC"/>
  <circle cx="952" cy="176" r="22" fill="#FFF4EC"/>
  <text x="600" y="188" text-anchor="middle" fill="#FFF9F5" font-family="Georgia, serif" font-size="56" font-weight="700">Datelume</text>
  <text x="600" y="240" text-anchor="middle" fill="#FFF4EC" font-family="Arial, sans-serif" font-size="22" letter-spacing="6">APRIL PLANNER</text>
  <rect x="178" y="304" width="844" height="420" rx="28" fill="#FAF7F2" stroke="#EEE4D7" stroke-width="2"/>
  <g fill="#C8B8A7" font-family="Arial, sans-serif" font-size="18" font-weight="700" letter-spacing="4">
    <text x="226" y="352">MON</text>
    <text x="346" y="352">TUE</text>
    <text x="466" y="352">WED</text>
    <text x="586" y="352">THU</text>
    <text x="706" y="352">FRI</text>
    <text x="826" y="352">SAT</text>
    <text x="946" y="352">SUN</text>
  </g>
  <g>
    <rect x="214" y="386" width="96" height="86" rx="22" fill="#FFFFFF"/>
    <rect x="334" y="386" width="96" height="86" rx="22" fill="#FFFFFF"/>
    <rect x="454" y="386" width="96" height="86" rx="22" fill="#F3DFD4"/>
    <rect x="574" y="386" width="96" height="86" rx="22" fill="#D38A63"/>
    <rect x="694" y="386" width="96" height="86" rx="22" fill="#F3DFD4"/>
    <rect x="814" y="386" width="96" height="86" rx="22" fill="#FFFFFF"/>
    <rect x="934" y="386" width="96" height="86" rx="22" fill="#FFFFFF"/>
    <rect x="214" y="496" width="96" height="86" rx="22" fill="#FFFFFF"/>
    <rect x="334" y="496" width="96" height="86" rx="22" fill="#FFFFFF"/>
    <rect x="454" y="496" width="96" height="86" rx="22" fill="#FFFFFF"/>
    <rect x="574" y="496" width="96" height="86" rx="22" fill="#FFFFFF"/>
    <rect x="694" y="496" width="96" height="86" rx="22" fill="#FFFFFF"/>
    <rect x="814" y="496" width="96" height="86" rx="22" fill="#FFFFFF"/>
    <rect x="934" y="496" width="96" height="86" rx="22" fill="#FFFFFF"/>
    <rect x="214" y="606" width="96" height="86" rx="22" fill="#FFFFFF"/>
    <rect x="334" y="606" width="96" height="86" rx="22" fill="#FFFFFF"/>
    <rect x="454" y="606" width="96" height="86" rx="22" fill="#FFFFFF"/>
    <rect x="574" y="606" width="96" height="86" rx="22" fill="#FFFFFF"/>
    <rect x="694" y="606" width="96" height="86" rx="22" fill="#FFFFFF"/>
    <rect x="814" y="606" width="96" height="86" rx="22" fill="#FFFFFF"/>
    <rect x="934" y="606" width="96" height="86" rx="22" fill="#FFFFFF"/>
  </g>
  <g fill="#7A6859" font-family="Arial, sans-serif" font-size="30" font-weight="700">
    <text x="248" y="440">1</text>
    <text x="368" y="440">2</text>
    <text x="488" y="440">3</text>
    <text x="608" y="440" fill="#FFF9F5">4</text>
    <text x="728" y="440">5</text>
    <text x="848" y="440">6</text>
    <text x="968" y="440">7</text>
    <text x="248" y="550">8</text>
    <text x="368" y="550">9</text>
    <text x="480" y="550">10</text>
    <text x="600" y="550">11</text>
    <text x="720" y="550">12</text>
    <text x="840" y="550">13</text>
    <text x="960" y="550">14</text>
  </g>
</svg>
